<?xml version="1.0" standalone="no"?>
<!DOCTYPE svg PUBLIC "-//W3C//DTD SVG 20010904//EN"
 "http://www.w3.org/TR/2001/REC-SVG-20010904/DTD/svg10.dtd">
<svg version="1.0" xmlns="http://www.w3.org/2000/svg"
 width="512.000000pt" height="512.000000pt" viewBox="0 0 512.000000 512.000000"
 preserveAspectRatio="xMidYMid meet">

<g transform="translate(0.000000,512.000000) scale(0.100000,-0.100000)"
fill="#000000" stroke="none">
<path d="M1502 4766 c-111 -36 -170 -110 -202 -251 l-22 -92 -50 33 c-95 64
-199 71 -285 18 -84 -52 -97 -86 -197 -490 -48 -197 -107 -435 -130 -529 l-43
-170 -26 51 c-39 76 -101 150 -152 180 -91 53 -175 15 -229 -105 -28 -63 -105
-362 -138 -541 -17 -88 -22 -153 -22 -280 0 -286 30 -371 251 -695 143 -210
180 -329 190 -603 l6 -164 -67 7 c-82 9 -141 -10 -185 -60 -35 -41 -45 -87
-62 -282 -10 -128 -10 -148 5 -186 19 -51 47 -80 97 -101 24 -10 307 -40 863
-91 895 -82 863 -81 927 -28 51 43 60 73 77 270 l16 185 -24 46 c-26 49 -77
90 -123 99 -32 6 -31 11 10 105 19 42 43 73 94 118 81 72 145 158 194 261 61
128 77 198 82 360 6 175 -4 235 -77 455 -33 100 -50 169 -50 201 0 31 52 256
135 585 91 361 135 553 135 589 0 97 -62 193 -154 241 -31 17 -59 22 -118 22
-88 1 -82 -15 -47 128 36 145 21 232 -55 316 -50 55 -120 83 -205 83 l-68 0 0
58 c-1 104 -55 191 -147 236 -65 32 -145 40 -204 21z m138 -141 c36 -18 67
-58 75 -95 4 -19 -48 -255 -169 -761 -97 -403 -176 -745 -176 -761 0 -52 53
-83 100 -58 25 13 26 17 180 660 72 300 137 568 145 597 27 93 107 133 188 94
51 -25 77 -65 77 -119 0 -23 -77 -359 -170 -748 -94 -390 -170 -720 -170 -734
0 -31 8 -44 38 -59 30 -16 68 -7 83 20 6 12 67 252 134 535 68 282 131 524
140 538 20 30 73 56 115 56 71 0 130 -61 130 -134 0 -21 -61 -282 -136 -579
-161 -637 -157 -594 -76 -832 62 -184 75 -250 74 -385 -1 -129 -25 -231 -84
-350 -34 -70 -58 -102 -138 -182 -103 -104 -150 -176 -174 -269 -12 -48 -16
-54 -37 -52 -13 2 -278 25 -589 53 -311 28 -574 53 -586 55 -20 4 -21 12 -27
172 -7 189 -30 319 -78 441 -39 99 -62 139 -172 296 -164 236 -192 321 -191
571 0 145 5 189 28 300 59 282 123 505 146 505 13 0 78 -77 98 -117 53 -103
62 -187 37 -338 -37 -224 -18 -274 183 -489 223 -239 292 -391 252 -556 -11
-47 -11 -54 7 -78 26 -35 68 -40 98 -12 43 41 59 193 31 298 -35 131 -112 249
-288 443 -133 146 -148 166 -148 196 0 34 370 1534 386 1565 8 15 24 34 36 42
73 51 209 -31 211 -127 0 -18 -64 -299 -143 -626 -151 -631 -151 -632 -101
-657 24 -12 75 -2 87 17 3 5 90 365 195 801 114 476 197 803 208 818 37 53
115 74 171 45z m-486 -3699 c634 -59 801 -77 814 -89 13 -14 14 -33 2 -172
-16 -188 -17 -190 -104 -181 -64 6 -1017 94 -1365 126 -149 13 -207 22 -219
33 -13 14 -13 33 -2 164 12 151 25 193 58 193 9 0 376 -33 816 -74z"/>
<path d="M3452 4761 c-111 -38 -184 -137 -186 -251 l-1 -59 -67 0 c-115 1
-206 -55 -254 -156 -30 -62 -31 -138 -5 -243 35 -143 41 -127 -42 -127 -51 0
-85 -7 -117 -21 -94 -43 -160 -143 -160 -243 0 -36 44 -228 135 -589 83 -329
135 -554 135 -585 0 -32 -17 -101 -50 -200 -66 -198 -81 -278 -81 -417 -1
-260 82 -462 258 -636 66 -64 100 -106 117 -145 40 -89 40 -96 9 -102 -46 -9
-97 -50 -123 -99 l-24 -46 16 -185 c17 -197 26 -227 77 -270 57 -48 78 -50
327 -27 1194 108 1422 131 1461 146 23 8 53 28 67 44 44 53 50 88 37 244 -17
194 -27 240 -62 281 -44 50 -103 69 -185 60 l-67 -7 6 164 c10 274 47 393 190
603 127 187 163 248 197 338 64 164 75 401 31 642 -31 170 -109 473 -137 536
-54 120 -138 158 -229 105 -51 -30 -113 -104 -152 -180 l-26 -51 -43 170 c-23
94 -82 332 -130 529 -100 404 -113 438 -197 490 -86 53 -190 46 -285 -18 l-50
-33 -22 92 c-33 146 -91 216 -206 251 -62 18 -97 17 -162 -5z m147 -139 c19
-9 43 -28 52 -42 11 -15 94 -342 208 -818 105 -436 192 -796 195 -801 12 -19
63 -29 87 -17 50 25 50 26 -102 656 -78 327 -142 609 -142 627 2 96 138 178
211 127 12 -8 28 -27 36 -42 16 -31 386 -1532 386 -1565 0 -30 -15 -50 -148
-196 -176 -194 -253 -312 -288 -443 -28 -105 -12 -257 31 -298 30 -28 72 -23
98 12 18 24 18 31 7 78 -40 165 29 317 252 556 201 215 220 265 183 489 -25
151 -16 235 37 338 20 40 85 117 98 117 23 0 84 -208 141 -485 35 -167 47
-363 30 -475 -23 -153 -60 -229 -225 -470 -152 -223 -202 -383 -213 -683 -6
-160 -7 -168 -27 -172 -12 -2 -275 -27 -586 -55 -311 -28 -576 -51 -589 -53
-21 -2 -25 4 -37 52 -24 93 -71 165 -174 269 -80 80 -104 112 -138 182 -59
119 -83 222 -84 350 -1 133 11 199 74 384 81 241 85 196 -76 833 -75 297 -136
558 -136 579 0 73 59 134 130 134 42 0 95 -26 115 -56 9 -14 72 -256 140 -538
67 -283 128 -523 134 -535 15 -27 53 -36 83 -20 30 15 38 28 38 59 0 14 -76
344 -170 734 -93 389 -170 726 -170 748 0 114 133 175 221 101 36 -31 30 -9
189 -673 154 -643 155 -647 180 -660 47 -25 100 6 100 58 0 16 -79 357 -175
758 -116 481 -174 739 -170 758 7 41 30 73 68 96 40 25 82 25 126 2z m1215
-3644 c8 -14 19 -81 26 -171 11 -130 11 -150 -2 -164 -12 -11 -189 -31 -819
-89 -442 -40 -809 -74 -816 -74 -31 0 -40 31 -53 185 -11 138 -11 158 2 172
12 11 134 26 549 64 294 27 644 60 779 73 322 31 316 31 334 4z"/>
</g>
</svg>
