<?xml version="1.0" standalone="no"?>
<!DOCTYPE svg PUBLIC "-//W3C//DTD SVG 20010904//EN"
 "http://www.w3.org/TR/2001/REC-SVG-20010904/DTD/svg10.dtd">
<svg version="1.0" xmlns="http://www.w3.org/2000/svg"
 width="512.000000pt" height="512.000000pt" viewBox="0 0 512.000000 512.000000"
 preserveAspectRatio="xMidYMid meet">

<g transform="translate(0.000000,512.000000) scale(0.100000,-0.100000)"
fill="#000000" stroke="none">
<path d="M2440 4860 c-471 -27 -929 -200 -1295 -490 -264 -209 -489 -486 -638
-788 -162 -327 -239 -656 -239 -1022 0 -269 34 -477 119 -733 262 -789 943
-1383 1757 -1531 72 -14 165 -27 206 -30 41 -3 109 -8 150 -11 89 -7 317 9
450 31 867 145 1582 779 1831 1624 121 408 121 892 0 1300 -88 299 -242 587
-441 825 -471 564 -1169 866 -1900 825z m940 -1010 l0 -260 -188 0 c-215 0
-265 -10 -319 -62 -54 -52 -63 -101 -63 -340 l0 -208 275 0 275 0 -2 -277 -3
-278 -272 -3 -273 -2 0 -705 0 -705 -290 0 -290 0 0 705 0 705 -235 0 -235 0
0 280 0 280 235 0 235 0 0 208 c0 320 22 454 96 590 l34 62 -467 0 -466 0 23
25 c13 14 25 23 28 20 3 -2 16 5 31 16 22 18 26 19 29 5 4 -20 11 -20 34 1 12
11 18 12 18 4 0 -8 11 -4 28 9 23 19 27 20 30 6 4 -18 18 -21 27 -5 4 5 12 8
18 6 7 -3 36 9 65 25 50 28 52 29 52 8 0 -18 3 -19 20 -10 11 6 25 8 30 5 5
-3 19 -1 30 5 17 9 20 8 20 -10 0 -14 4 -19 12 -14 17 11 208 11 208 1 0 -5
11 -6 25 -3 16 4 25 2 25 -5 0 -7 9 -9 25 -5 20 5 25 3 25 -14 0 -16 5 -19 30
-13 20 4 30 2 30 -7 0 -9 10 -10 34 -6 23 5 35 3 38 -6 3 -8 32 12 74 50 98
89 243 156 379 175 17 2 150 5 298 6 l267 1 0 -260z m-2060 5 c0 -8 -4 -15
-10 -15 -5 0 -7 7 -4 15 4 8 8 15 10 15 2 0 4 -7 4 -15z m-100 -5 c0 -5 -5
-10 -11 -10 -5 0 -7 5 -4 10 3 6 8 10 11 10 2 0 4 -4 4 -10z"/>
</g>
</svg>
