<?xml version="1.0" standalone="no"?>
<!DOCTYPE svg PUBLIC "-//W3C//DTD SVG 20010904//EN"
 "http://www.w3.org/TR/2001/REC-SVG-20010904/DTD/svg10.dtd">
<svg version="1.0" xmlns="http://www.w3.org/2000/svg"
 width="512.000000pt" height="512.000000pt" viewBox="0 0 512.000000 512.000000"
 preserveAspectRatio="xMidYMid meet">

<g transform="translate(0.000000,512.000000) scale(0.100000,-0.100000)"
fill="#000000" stroke="none">
<path d="M2236 5094 c-458 -59 -924 -259 -1284 -551 -510 -414 -847 -1022
-927 -1673 -20 -161 -20 -459 0 -620 106 -854 638 -1601 1410 -1980 254 -124
480 -194 778 -242 184 -29 499 -31 682 -4 564 82 1039 311 1434 692 221 213
389 441 521 709 182 367 260 709 260 1135 0 408 -82 764 -260 1125 -380 774
-1126 1305 -1980 1410 -154 19 -482 18 -634 -1z m-649 -956 c72 -26 132 -77
175 -149 115 -189 47 -422 -152 -526 -50 -26 -64 -28 -160 -28 -97 0 -110 2
-164 30 -78 39 -141 102 -174 173 -24 50 -27 69 -27 157 0 87 3 107 27 157 82
176 286 256 475 186z m2082 -844 c151 -34 269 -133 344 -286 88 -181 97 -282
97 -1149 l0 -659 -329 0 -330 0 -4 643 c-3 470 -7 655 -16 690 -20 76 -68 138
-131 170 -76 40 -169 35 -267 -13 -88 -43 -197 -151 -241 -240 l-32 -63 0
-594 0 -593 -330 0 -330 0 2 1038 3 1037 298 3 297 2 0 -147 0 -148 91 88 c76
73 107 95 192 137 56 27 139 58 184 70 163 41 363 46 502 14z m-1891 -1056 l2
-1038 -330 0 -330 0 0 1040 0 1040 328 -2 327 -3 3 -1037z"/>
</g>
</svg>
