<?xml version="1.0" standalone="no"?>
<!DOCTYPE svg PUBLIC "-//W3C//DTD SVG 20010904//EN"
 "http://www.w3.org/TR/2001/REC-SVG-20010904/DTD/svg10.dtd">
<svg version="1.0" xmlns="http://www.w3.org/2000/svg"
 width="512.000000pt" height="512.000000pt" viewBox="0 0 512.000000 512.000000"
 preserveAspectRatio="xMidYMid meet">

<g transform="translate(0.000000,512.000000) scale(0.100000,-0.100000)"
fill="#000000" stroke="none">
<path d="M640 4789 c-152 -30 -281 -163 -310 -320 -7 -37 -9 -687 -8 -1945 l3
-1889 23 -55 c33 -81 85 -146 152 -189 109 -71 -46 -66 2070 -66 l1915 0 55
23 c117 48 208 146 241 259 21 72 21 3834 0 3906 -33 113 -124 211 -241 259
l-55 23 -1900 1 c-1062 1 -1920 -2 -1945 -7z m3886 -184 c30 -19 60 -49 79
-79 l30 -49 3 -1901 c3 -2124 9 -1947 -69 -2025 -78 -78 99 -72 -2025 -69
l-1901 3 -49 30 c-30 19 -60 49 -79 79 l-30 49 -3 1896 c-2 1286 0 1908 7
1932 18 59 64 114 122 143 l53 26 1906 -2 1907 -3 49 -30z"/>
<path d="M729 4457 c-31 -16 -51 -36 -66 -67 l-23 -44 0 -1786 0 -1786 23 -44
c16 -33 34 -51 67 -67 l44 -23 1786 0 1786 0 44 23 c33 16 51 34 67 67 l23 44
0 1786 0 1786 -23 44 c-16 33 -34 51 -67 68 l-44 22 -1787 0 -1786 0 -44 -23z
m3591 -1897 l0 -1760 -1760 0 -1760 0 0 1760 0 1760 1760 0 1760 0 0 -1760z"/>
<path d="M2524 4016 c-126 -40 -244 -139 -302 -255 -90 -180 -54 -397 89 -544
l58 -60 -43 -62 c-65 -91 -199 -213 -411 -374 -426 -325 -505 -398 -589 -552
-61 -111 -79 -200 -79 -379 0 -127 4 -169 21 -234 54 -197 164 -341 320 -419
l85 -42 868 -3 c856 -2 869 -2 930 18 267 90 428 385 405 745 -11 178 -58 305
-165 436 -74 93 -146 154 -446 384 -239 182 -376 301 -434 374 l-31 39 65 31
c91 42 176 126 221 215 42 87 62 184 44 225 -16 40 -60 58 -100 41 -16 -7 -30
-16 -30 -20 0 -19 -88 -105 -125 -121 -92 -42 -212 -16 -278 62 -93 107 -67
278 52 351 48 30 60 47 61 86 0 49 -29 72 -92 71 -29 0 -71 -6 -94 -13z m-140
-311 c-3 -14 -1 -55 5 -91 34 -196 193 -332 390 -335 l56 -1 -50 -24 c-67 -32
-170 -33 -252 -2 -78 29 -152 103 -182 183 -29 77 -26 188 8 253 24 47 34 54
25 17z m199 -630 c40 -6 48 -12 78 -58 61 -97 243 -264 499 -459 135 -102 276
-213 313 -245 129 -112 203 -222 232 -345 20 -84 19 -260 -1 -351 -35 -155
-125 -284 -241 -343 l-58 -29 -845 0 -845 0 -56 28 c-33 16 -80 52 -113 87
-101 106 -146 238 -146 435 0 174 33 277 127 396 56 72 141 145 393 336 333
254 458 368 550 502 24 37 47 60 55 58 7 -3 33 -8 58 -12z"/>
</g>
</svg>
