<?xml version="1.0" standalone="no"?>
<!DOCTYPE svg PUBLIC "-//W3C//DTD SVG 20010904//EN"
 "http://www.w3.org/TR/2001/REC-SVG-20010904/DTD/svg10.dtd">
<svg version="1.0" xmlns="http://www.w3.org/2000/svg"
 width="512.000000pt" height="512.000000pt" viewBox="0 0 512.000000 512.000000"
 preserveAspectRatio="xMidYMid meet">

<g transform="translate(0.000000,512.000000) scale(0.100000,-0.100000)"
fill="#000000" stroke="none">
<path d="M2565 5066 c-33 -9 -40 -16 -40 -36 0 -23 3 -25 40 -23 206 13 271 3
376 -55 50 -27 79 -25 79 7 0 29 -61 67 -153 96 -88 28 -229 33 -302 11z"/>
<path d="M2403 4998 c-28 -14 -29 -29 -3 -53 20 -18 21 -18 43 3 17 17 19 26
11 39 -14 22 -24 24 -51 11z"/>
<path d="M2631 4870 c-58 -12 -119 -43 -167 -84 -40 -34 -104 -139 -104 -169
0 -28 -16 -27 -59 4 -113 84 -280 76 -389 -16 -22 -20 -54 -63 -71 -97 -26
-51 -31 -73 -31 -134 l0 -72 -47 15 c-133 41 -296 -34 -360 -165 -37 -76 -39
-192 -5 -261 12 -25 22 -46 22 -48 0 -2 -20 -3 -45 -3 -112 0 -233 -86 -274
-195 -69 -184 44 -392 227 -421 24 -4 41 -9 39 -13 -1 -3 -16 -33 -32 -66 -74
-153 -7 -339 149 -411 28 -13 59 -24 69 -24 22 0 22 -6 -3 -40 -33 -47 -51
-111 -52 -183 0 -57 6 -80 31 -132 17 -35 47 -77 66 -94 l35 -31 -35 -14 c-54
-23 -130 -100 -156 -159 -34 -78 -33 -183 4 -259 53 -108 146 -169 270 -176
42 -2 77 -7 77 -9 0 -2 -72 -138 -160 -301 -151 -279 -165 -301 -230 -364
-115 -109 -283 -183 -484 -212 -54 -8 -82 -16 -90 -28 -15 -25 368 -598 401
-598 26 0 131 70 236 158 154 130 272 291 336 458 35 89 44 102 241 338 113
134 207 245 210 245 3 1 13 -21 23 -47 22 -63 81 -130 148 -167 49 -27 63 -30
144 -30 78 0 97 4 141 27 82 43 163 150 164 215 0 33 16 36 57 9 59 -37 108
-49 187 -44 79 5 135 29 194 83 69 62 110 180 93 271 -8 44 -8 45 13 40 168
-50 354 48 397 207 18 69 12 160 -15 228 -6 14 3 17 62 21 244 18 368 304 217
502 -25 33 -26 36 -9 42 102 35 164 87 205 170 20 40 24 64 24 134 0 72 -4 92
-27 135 -29 54 -75 106 -118 132 l-28 16 53 53 c175 175 95 470 -143 526 l-50
12 23 31 c89 119 68 307 -45 409 -92 83 -216 105 -333 61 -15 -6 -17 0 -17 49
0 200 -190 350 -382 301 -68 -17 -111 -40 -147 -79 -29 -30 -41 -33 -41 -8 0
33 -49 121 -90 162 -79 79 -214 121 -319 100z m195 -93 c100 -50 153 -139 154
-252 0 -164 -119 -285 -282 -285 -121 0 -237 83 -270 193 -19 65 -14 154 12
210 29 60 109 133 169 152 65 21 154 14 217 -18z m580 -165 c88 -46 134 -122
134 -225 0 -161 -155 -272 -318 -226 -66 18 -135 89 -156 160 -20 65 -20 82
-1 147 19 62 86 133 147 156 55 20 142 15 194 -12z m-1179 -24 c48 -22 99 -76
119 -124 21 -51 18 -150 -7 -201 -43 -89 -160 -153 -252 -138 -125 21 -211
122 -211 245 0 124 75 212 209 243 32 8 97 -3 142 -25z m786 -317 c33 -93 145
-177 253 -188 47 -5 108 4 158 23 14 5 16 -2 16 -52 0 -79 26 -147 79 -206 47
-52 90 -79 158 -97 l43 -12 -32 -55 c-36 -64 -48 -168 -29 -241 16 -60 69
-134 123 -169 l46 -31 -43 -36 c-26 -22 -56 -61 -74 -98 -27 -53 -31 -73 -31
-138 0 -81 28 -161 72 -208 20 -22 20 -23 2 -29 -109 -38 -180 -101 -213 -190
-25 -64 -27 -160 -6 -219 8 -21 13 -40 12 -40 -1 -1 -32 -6 -69 -12 -121 -20
-205 -80 -252 -182 -16 -36 -21 -65 -21 -132 l0 -86 -30 8 c-47 14 -137 10
-188 -7 -91 -31 -184 -140 -202 -237 l-7 -36 -32 24 c-47 36 -110 55 -180 55
-79 0 -143 -22 -194 -66 l-40 -34 -23 46 c-45 95 -131 153 -237 162 -53 4 -62
7 -57 21 45 118 19 254 -66 337 -21 21 -39 41 -39 45 0 4 15 13 33 20 87 36
165 148 174 250 14 150 -85 296 -225 331 l-43 11 18 26 c46 70 57 105 57 186
0 93 -20 149 -79 213 -38 42 -124 92 -159 92 -44 0 -48 14 -20 65 21 37 28 66
32 124 4 71 -2 101 -32 172 -6 14 2 18 46 23 164 21 281 149 282 309 1 56 4
66 16 61 35 -16 159 -16 208 0 91 30 177 117 197 199 l7 27 40 -36 c23 -20 66
-48 97 -63 47 -22 70 -26 141 -26 76 0 93 4 152 33 37 18 80 49 99 71 19 22
36 40 39 40 3 1 13 -21 23 -48z m865 -8 c52 -32 106 -110 115 -167 9 -55 -4
-113 -37 -168 -99 -165 -344 -154 -426 19 -63 130 2 289 137 339 60 23 154 12
211 -23z m-2093 -27 c94 -43 151 -139 142 -236 -15 -164 -163 -265 -321 -218
-55 16 -138 99 -154 154 -30 102 -5 194 73 262 75 66 171 80 260 38z m-298
-482 c91 -33 161 -154 147 -254 -14 -97 -83 -177 -175 -204 -65 -20 -73 -20
-138 0 -122 36 -197 160 -170 283 20 93 100 173 190 190 51 9 87 6 146 -15z
m2580 -6 c83 -38 135 -123 135 -219 0 -220 -268 -327 -418 -167 -65 69 -85
146 -59 233 43 149 200 220 342 153z m-2373 -500 c55 -16 138 -99 154 -154 38
-129 -24 -259 -145 -304 -71 -26 -127 -25 -188 4 -192 91 -192 351 0 442 56
26 116 30 179 12z m2389 -51 c162 -68 198 -292 66 -411 -155 -141 -403 -27
-403 184 0 98 56 186 144 224 44 19 150 20 193 3z m-2204 -473 c102 -30 171
-122 171 -227 0 -143 -101 -247 -240 -247 -72 0 -123 19 -168 63 -133 128 -92
340 79 405 66 26 90 26 158 6z m2058 -76 c83 -38 136 -124 135 -219 0 -111
-70 -203 -177 -234 -183 -54 -354 117 -301 300 44 149 201 219 343 153z m-299
-475 c60 -37 99 -94 114 -165 48 -230 -244 -384 -411 -217 -48 48 -71 103 -71
174 0 77 24 129 83 181 58 51 96 64 175 60 48 -3 74 -11 110 -33z m-1842 -8
c66 -20 117 -64 150 -131 23 -47 26 -63 22 -117 -6 -72 -23 -111 -70 -158 -94
-94 -252 -94 -346 0 -47 47 -64 86 -70 158 -4 54 -1 70 22 117 32 65 83 111
146 131 59 18 86 18 146 0z m1394 -362 c71 -29 133 -110 146 -191 15 -95 -46
-206 -140 -254 -121 -63 -296 11 -334 141 -63 209 127 386 328 304z m-1038
-104 c78 -39 126 -131 114 -219 -8 -56 -4 -50 -263 -357 l-214 -253 -82 52
c-173 108 -159 96 -146 121 59 113 307 570 325 599 51 80 169 105 266 57z
m484 -94 c208 -62 236 -345 44 -449 -148 -81 -337 16 -357 183 -13 114 60 233
164 265 62 19 89 19 149 1z m-991 -728 c61 -38 111 -70 112 -71 1 -1 -13 -38
-30 -81 -44 -108 -123 -222 -226 -326 -77 -77 -241 -209 -260 -209 -12 0 -162
230 -157 239 3 5 25 11 48 15 68 11 128 42 128 66 0 32 -25 35 -103 11 -121
-35 -126 -34 -187 59 -29 44 -51 82 -49 83 2 2 47 13 101 24 53 12 131 36 174
53 91 36 221 120 278 179 22 22 44 37 50 34 6 -4 61 -38 121 -76z"/>
<path d="M1426 681 c-52 -54 -9 -97 45 -45 34 32 36 49 10 64 -26 13 -23 14
-55 -19z"/>
<path d="M1936 678 c-20 -28 -20 -52 -2 -67 20 -17 43 -4 55 31 19 53 -23 80
-53 36z"/>
<path d="M1844 493 c-100 -138 -144 -190 -228 -271 -52 -50 -97 -96 -100 -101
-11 -17 6 -41 29 -41 47 0 301 276 361 392 12 23 13 33 3 44 -19 23 -36 17
-65 -23z"/>
</g>
</svg>
